<svg xmlns="http://www.w3.org/2000/svg" width="252.827" height="38.863" viewBox="0 0 252.827 38.863">
  <g id="Group_274" data-name="Group 274" transform="translate(0 538.685)">
    <path id="Path_1" data-name="Path 1" d="M18.631-431.869H0l.594-.974L18.085-461.5l.473-.774.571.706,12.362,15.29.763.944-1.211.095-4.46.35,10.029,11.969.881,1.051H18.631ZM2.28-433.151H34.75L24.8-445.02l-.8-.952,1.238-.1,4.486-.352L18.7-460.061Z" transform="translate(0 -68.484)" fill="#fff"/>
    <path id="Path_2" data-name="Path 2" d="M251.019-432.906H232.388l.594-.974,17.491-28.658.546-.894.546.894,17.491,28.658.594.974H251.019Zm-16.351-1.282h32.7l-16.351-26.79Z" transform="translate(-208.283 -67.447)" fill="#fff"/>
    <g id="Group_1" data-name="Group 1" transform="translate(75.109 -531.253)">
      <path id="Path_3" data-name="Path 3" d="M724.108-393.823h3v-13.923h1.709l10.755,13.923h3.71l-10.8-13.923c4.961,0,7.962-1.209,9.5-4.335a7.175,7.175,0,0,0,.876-3.71A7.408,7.408,0,0,0,737.948-423a22.255,22.255,0,0,0-6.962-.75h-6.878v29.931Zm9.129-27.013c4.5,0,6.5,2.126,6.5,5.044a5.046,5.046,0,0,1-1.792,3.877c-1.292,1.042-3.293,1.292-5.878,1.292-1.584,0-3.293-.042-4.961-.042v-10.172Zm27.555-2.918-14.173,29.931h3.335l4.669-9.838h12.923l4.711,9.838h3.21L761.5-423.754Zm5.419,17.175H755.956l5.169-10.838Z" transform="translate(-724.108 424.504)" fill="#fff"/>
      <path id="Path_4" data-name="Path 4" d="M1197.884-399.426h3v-14.3l9.5-15.632h-3.46l-7.545,12.339-7.67-12.339h-3.46l9.63,15.632v14.3Zm28.722-30.681a15.562,15.562,0,0,0-15.549,15.841,15.534,15.534,0,0,0,15.8,15.591,15.553,15.553,0,0,0,15.757-15.716c0-8.921-6.92-15.716-16.007-15.716Zm.167,2.918a12.636,12.636,0,0,1,12.714,12.756,12.533,12.533,0,0,1-12.714,12.84,12.516,12.516,0,0,1-12.589-12.673,12.652,12.652,0,0,1,12.589-12.923Zm39.56,13.381v2.918h9.546c-.833,6.045-5.919,9.421-11.589,9.421-8.046,0-13.84-6.128-13.84-13.006,0-7.212,6.211-12.714,13.381-12.714a16.541,16.541,0,0,1,11.338,5.044l2.293-2.168c-4-3.793-8.212-5.794-13.715-5.794-9.838,0-16.425,7.253-16.425,15.716,0,8.254,6.5,15.674,16.883,15.674,8.962,0,15.007-5.586,15.049-15.091Zm30.139-15.549L1282.3-399.426h3.335l4.669-9.838h12.923l4.71,9.838h3.21l-13.965-29.931Zm5.419,17.175h-10.255l5.169-10.838Z" transform="translate(-1133.428 430.107)" fill="#fff"/>
    </g>
    <g id="Group_3" data-name="Group 3" transform="translate(31.344 -538.685)">
      <path id="Path_5" data-name="Path 5" d="M344.416-502.013a7.756,7.756,0,0,1,5.5,2.278,7.756,7.756,0,0,1,2.278,5.5,7.756,7.756,0,0,1-2.278,5.5,7.756,7.756,0,0,1-5.5,2.278,7.755,7.755,0,0,1-5.5-2.278,7.756,7.756,0,0,1-2.278-5.5,7.756,7.756,0,0,1,2.278-5.5,7.756,7.756,0,0,1,5.5-2.278Zm4.706,3.074a6.636,6.636,0,0,0-4.706-1.949,6.637,6.637,0,0,0-4.706,1.949,6.635,6.635,0,0,0-1.949,4.706,6.635,6.635,0,0,0,1.949,4.706,6.637,6.637,0,0,0,4.706,1.95,6.637,6.637,0,0,0,4.706-1.95,6.636,6.636,0,0,0,1.949-4.706A6.636,6.636,0,0,0,349.122-498.939Z" transform="translate(-333.063 505.817)" fill="#fff"/>
      <g id="Group_2" data-name="Group 2" transform="translate(0 0)">
        <path id="Path_6" data-name="Path 6" d="M313.364-538.685h.393v2.2h-.393v-2.2Zm3.332,22.324-.379.1-.57-2.125.38-.1.569,2.126Zm-5.322-19.862-.38.1-.57-2.125.38-.1.57,2.125Zm8.047,18.678-.34.2-1.1-1.905.34-.2,1.1,1.906ZM309.14-535.353l-.34.2-1.1-1.905.34-.2,1.1,1.905Zm12.607,15.958-.278.278-1.556-1.556.278-.278,1.556,1.556Zm-14.54-14.54-.278.278-1.556-1.556.278-.278,1.556,1.556Zm16.308,12.151-.2.34-1.906-1.1.2-.34,1.906,1.1Zm-17.808-10.281-.2.34-1.906-1.1.2-.34,1.906,1.1Zm18.9,7.517-.1.379-2.125-.569.1-.38,2.126.57Zm-19.862-5.322-.1.38-2.125-.57.1-.379,2.125.57Zm20.2,2.37v.393h-2.2v-.393Zm-20.562,0v.393h-2.2v-.393Zm20.124-2.939.1.379-2.126.57-.1-.38,2.125-.569Zm-19.862,5.322.1.38-2.125.57-.1-.38,2.125-.57Zm18.677-8.047.2.34-1.906,1.1-.2-.34,1.906-1.1Zm-17.808,10.281.2.34-1.906,1.1-.2-.34,1.906-1.1Zm15.958-12.607.278.278-1.556,1.556-.278-.278,1.556-1.556Zm-14.54,14.54.278.278-1.556,1.556-.278-.278,1.556-1.556Zm12.152-16.308.34.2-1.1,1.906-.34-.2,1.1-1.905ZM308.8-519.451l.34.2-1.1,1.905-.34-.2,1.1-1.905Zm7.517-18.9.379.1-.569,2.126-.38-.1.57-2.125Zm-2.952,20.226h.393v2.2h-.393v-2.2Zm-2.37-.364.38.1-.57,2.125-.379-.1Z" transform="translate(-302.179 538.685)" fill="#fff"/>
        <path id="Path_7" data-name="Path 7" d="M322.6-529.784l.36.043-.24,2.018-.36-.043.24-2.018Zm.618,20.835-.359.052-.29-2.011.359-.052.29,2.011Zm-2.712-18.794-.359.052-.29-2.011.359-.052.29,2.011Zm5.34,18.006-.333.143-.8-1.867.333-.143.8,1.867Zm-7.484-17.452-.333.143-.8-1.868.333-.143.8,1.867Zm9.819,16.01-.285.224-1.257-1.6.285-.224,1.257,1.6ZM316.436-526.1l-.285.224-1.257-1.6.285-.224,1.257,1.6Zm13.628,12.923-.217.291L328.22-514.1l.217-.29,1.627,1.217Zm-15.207-11.372-.217.29-1.627-1.217.217-.29,1.627,1.217Zm16.508,8.956-.134.337-1.887-.754.134-.337,1.887.754Zm-17.632-7.048-.135.337-1.887-.754.135-.337,1.887.754ZM332-518.264l-.043.36-2.018-.24.043-.36,2.018.24Zm-18.856-2.245-.043.36-2.018-.24.043-.36,2.018.24Zm18.774-.5.052.359-2.011.29-.052-.359,2.011-.29Zm-18.794,2.712.052.359-2.011.29L311.11-518l2.011-.29Zm18.005-5.341.143.333-1.867.8-.143-.333,1.867-.8Zm-17.452,7.484.143.333-1.868.8-.143-.333,1.868-.8Zm16.01-9.819.224.285-1.6,1.257-.224-.285,1.6-1.257Zm-14.92,11.746.224.285-1.6,1.257-.224-.285,1.6-1.257Zm12.923-13.628.291.217-1.217,1.627-.291-.217,1.217-1.627Zm-11.372,15.208.291.217-1.217,1.627-.291-.217,1.217-1.627Zm8.956-16.508.337.135-.754,1.887-.337-.135.754-1.887Zm-4.915,18.225.36.043-.24,2.018-.36-.043.24-2.018Zm-2.133-.592.337.135-.754,1.887-.337-.135Z" transform="translate(-310.157 530.707)" fill="#fff"/>
      </g>
    </g>
  </g>
</svg>
